<svg width="177" height="453" viewBox="0 0 177 453" fill="none" xmlns="http://www.w3.org/2000/svg">
<rect x="25.875" y="281" width="150" height="150" transform="rotate(8 25.875 281)" fill="#F2E8CF"/>
<rect x="38.6406" y="297.942" width="120" height="120" transform="rotate(8 38.6406 297.942)" fill="#20292F"/>
<path d="M143.661 434.929L106.736 447.998C104.073 448.941 101.158 447.492 100.303 444.8L56.9625 308.432L4.86492 175.165C3.83635 172.534 5.19027 169.574 7.8534 168.631L44.7785 155.561C47.4417 154.619 50.3563 156.068 51.212 158.76L94.5523 295.127L146.65 428.395C147.678 431.026 146.324 433.986 143.661 434.929Z" fill="#F2E8CF"/>
<path fill-rule="evenodd" clip-rule="evenodd" d="M132.979 438.71L34.0957 159.343L38.8092 157.674L137.692 437.042L132.979 438.71Z" fill="#F2E8CF" style="mix-blend-mode:multiply"/>
<rect x="47.7129" y="296.721" width="49.5" height="28.2525" rx="7.5" transform="rotate(-19.4915 47.7129 296.721)" fill="#BC4749"/>
<path d="M115.866 297.466L92.7605 295.123L109.849 280.466" stroke="#BC4749" stroke-width="10" stroke-linecap="round"/>
<path opacity="0.5" fill-rule="evenodd" clip-rule="evenodd" d="M164.583 145.554C159.512 137.228 153.186 129.674 147.687 125C125.335 106 123.143 99.3333 122.047 89.4999V75.5671L3.67777 172.737C3.43989 183.648 3.24042 226.759 3.11746 278.102L164.583 145.554ZM2.98828 370.79C2.99168 362.511 2.99751 354.095 3.0056 345.633L173.985 205.275V230.418L2.98828 370.79Z" fill="url(#paint0_linear_64_2)"/>
<path d="M54.9886 3V89.5C54.9886 98.5 40.525 115 20.1445 135C14.885 139.833 4.23455 153.9 3.7086 171.5C3.20235 188.441 2.85807 351.892 3.02842 440.063C3.03907 445.576 7.51216 450 13.025 450H163.984C169.507 450 173.984 445.523 173.984 440V171.5C173.458 155.9 158.863 134.5 147.687 125C125.334 106 123.143 99.3333 122.047 89.5V3" stroke="#20292F" stroke-width="5" stroke-linecap="round" style="mix-blend-mode:multiply"/>
<path d="M54.9886 3V89.5C54.9886 98.5 40.525 115 20.1445 135C14.885 139.833 4.23455 153.9 3.7086 171.5C3.20235 188.441 2.85807 351.892 3.02842 440.063C3.03907 445.576 7.51216 450 13.025 450H163.984C169.507 450 173.984 445.523 173.984 440V171.5C173.458 155.9 158.863 134.5 147.687 125C125.334 106 123.143 99.3333 122.047 89.5V3" stroke="#AED9E0" stroke-opacity="0.5" stroke-width="5" stroke-linecap="round"/>
<defs>
<linearGradient id="paint0_linear_64_2" x1="398.991" y1="33.1368" x2="-55.8506" y2="406.519" gradientUnits="userSpaceOnUse">
<stop stop-color="white"/>
<stop offset="1" stop-color="white" stop-opacity="0"/>
</linearGradient>
</defs>
</svg>
