<svg width="177" height="453" viewBox="0 0 177 453" fill="none" xmlns="http://www.w3.org/2000/svg">
<path d="M143.677 434.929L106.752 447.998C104.089 448.941 101.174 447.492 100.318 444.8L56.9781 308.432L4.88055 175.165C3.85197 172.534 5.20589 169.574 7.86902 168.631L44.7942 155.561C47.4573 154.619 50.372 156.068 51.2276 158.76L94.5679 295.127L146.665 428.395C147.694 431.026 146.34 433.986 143.677 434.929Z" fill="#F2E8CF"/>
<path fill-rule="evenodd" clip-rule="evenodd" d="M132.994 438.71L34.1113 159.343L38.8248 157.674L137.708 437.042L132.994 438.71Z" fill="#F2E8CF" style="mix-blend-mode:multiply"/>
<rect x="47.7285" y="296.721" width="49.5" height="28.2525" rx="7.5" transform="rotate(-19.4915 47.7285 296.721)" fill="#BC4749"/>
<path d="M115.882 297.467L92.7761 295.124L109.865 280.467" stroke="#BC4749" stroke-width="10" stroke-linecap="round"/>
<path opacity="0.5" fill-rule="evenodd" clip-rule="evenodd" d="M164.598 145.554C159.527 137.228 153.201 129.674 147.703 125C125.35 106 123.159 99.3333 122.063 89.4999V75.5671L3.69339 172.737C3.45552 183.648 3.25604 226.759 3.13308 278.102L164.598 145.554ZM3.00391 370.79C3.00731 362.511 3.01313 354.095 3.02122 345.633L174 205.275V230.418L3.00391 370.79Z" fill="url(#paint0_linear_32_103)"/>
<path d="M55.0042 3V89.5C55.0042 98.5 40.5406 115 20.1601 135C14.9006 139.833 4.25018 153.9 3.72423 171.5C3.21798 188.441 2.87369 351.892 3.04405 440.063C3.0547 445.576 7.52779 450 13.0406 450H164C169.523 450 174 445.523 174 440V171.5C173.474 155.9 158.879 134.5 147.703 125C125.35 106 123.158 99.3333 122.063 89.5V3" stroke="#20292F" stroke-width="5" stroke-linecap="round" style="mix-blend-mode:multiply"/>
<path d="M55.0042 3V89.5C55.0042 98.5 40.5406 115 20.1601 135C14.9006 139.833 4.25018 153.9 3.72423 171.5C3.21798 188.441 2.87369 351.892 3.04405 440.063C3.0547 445.576 7.52779 450 13.0406 450H164C169.523 450 174 445.523 174 440V171.5C173.474 155.9 158.879 134.5 147.703 125C125.35 106 123.158 99.3333 122.063 89.5V3" stroke="#AED9E0" stroke-opacity="0.5" stroke-width="5" stroke-linecap="round"/>
<defs>
<linearGradient id="paint0_linear_32_103" x1="399.007" y1="33.1368" x2="-55.835" y2="406.519" gradientUnits="userSpaceOnUse">
<stop stop-color="white"/>
<stop offset="1" stop-color="white" stop-opacity="0"/>
</linearGradient>
</defs>
</svg>
