<svg width="177" height="481" viewBox="0 0 177 481" fill="none" xmlns="http://www.w3.org/2000/svg">
<path d="M143.677 462.929L106.752 475.998C104.089 476.941 101.174 475.492 100.318 472.8L56.9781 336.432L4.88055 203.165C3.85197 200.534 5.20589 197.574 7.86902 196.631L44.7942 183.561C47.4573 182.619 50.372 184.068 51.2276 186.76L94.5679 323.127L146.665 456.395C147.694 459.026 146.34 461.986 143.677 462.929Z" fill="#F2E8CF"/>
<path fill-rule="evenodd" clip-rule="evenodd" d="M132.994 466.71L34.1113 187.343L38.8248 185.674L137.708 465.042L132.994 466.71Z" fill="#F2E8CF" style="mix-blend-mode:multiply"/>
<rect x="47.7285" y="324.721" width="49.5" height="28.2525" rx="7.5" transform="rotate(-19.4915 47.7285 324.721)" fill="#BC4749"/>
<path d="M115.882 325.467L92.7761 323.124L109.865 308.467" stroke="#BC4749" stroke-width="10" stroke-linecap="round"/>
<path opacity="0.5" fill-rule="evenodd" clip-rule="evenodd" d="M164.598 173.554C159.527 165.228 153.201 157.674 147.703 153C125.35 134 123.159 127.333 122.063 117.5V103.567L3.69339 200.737C3.45552 211.648 3.25604 254.759 3.13308 306.102L164.598 173.554ZM3.00391 398.79C3.00731 390.511 3.01313 382.095 3.02122 373.633L174 233.275V258.418L3.00391 398.79Z" fill="url(#paint0_linear_32_134)"/>
<path d="M55.0042 31V117.5C55.0042 126.5 40.5406 143 20.1601 163C14.9006 167.833 4.25018 181.9 3.72423 199.5C3.21798 216.441 2.87369 379.892 3.04405 468.063C3.0547 473.576 7.52779 478 13.0406 478H164C169.523 478 174 473.523 174 468V199.5C173.474 183.9 158.879 162.5 147.703 153C125.35 134 123.158 127.333 122.063 117.5V31" stroke="#20292F" stroke-width="5" stroke-linecap="round" style="mix-blend-mode:multiply"/>
<path d="M55.0042 31V117.5C55.0042 126.5 40.5406 143 20.1601 163C14.9006 167.833 4.25018 181.9 3.72423 199.5C3.21798 216.441 2.87369 379.892 3.04405 468.063C3.0547 473.576 7.52779 478 13.0406 478H164C169.523 478 174 473.523 174 468V199.5C173.474 183.9 158.879 162.5 147.703 153C125.35 134 123.158 127.333 122.063 117.5V31" stroke="#AED9E0" stroke-opacity="0.5" stroke-width="5" stroke-linecap="round"/>
<rect x="47" width="84" height="40" rx="10" fill="#BBAA7E"/>
<rect x="49.5" y="2.5" width="79" height="35" rx="7.5" stroke="#BBAA7E" stroke-opacity="0.75" stroke-width="5" style="mix-blend-mode:multiply"/>
<defs>
<linearGradient id="paint0_linear_32_134" x1="399.007" y1="61.1368" x2="-55.835" y2="434.519" gradientUnits="userSpaceOnUse">
<stop stop-color="white"/>
<stop offset="1" stop-color="white" stop-opacity="0"/>
</linearGradient>
</defs>
</svg>
