<svg width="522" height="522" viewBox="0 0 522 522" fill="none" xmlns="http://www.w3.org/2000/svg">
<circle cx="261" cy="261" r="261" fill="#AED9E0"/>
<path fill-rule="evenodd" clip-rule="evenodd" d="M19.0087 296.188C43.0138 279.679 103.795 250.415 166.827 314.197C167.221 314.986 166.786 313.298 165.835 309.614C159.558 285.283 130.824 173.902 170.579 114.596C173.608 108.003 178.372 100.454 183.715 91.9874C198.192 69.0465 216.922 39.3663 216.924 3.70594C225.518 2.24416 234.256 1.20256 243.115 0.603027C269.254 25.3387 300.522 74.9427 277.132 150.614C262.289 198.638 345.417 246.663 358.924 119.098C358.924 100.339 432.461 162.62 387.438 322.451C378.983 352.466 376.933 373.477 410.7 381.731C427.208 385.766 454.972 368.224 464.727 331.455C464.727 327.657 483.423 354.44 487.07 391.522C441.938 469.523 357.598 522 261 522C194.893 522 134.526 497.423 88.538 456.907C87.4816 452.033 86.8969 447.038 86.7759 442.011C86.5628 433.151 86.6381 425.057 86.7084 417.512C86.9336 393.325 87.1062 374.782 77.5518 354.717C70.09 332.302 37.9478 309.886 24.6628 300.622C20.6033 297.791 18.3046 296.188 19.0087 296.188Z" fill="#BC4749"/>
<path fill-rule="evenodd" clip-rule="evenodd" d="M194.566 513.47C192.299 502.188 190.87 486.931 190.87 465.773C190.62 450.766 179.314 415.648 151.1 401.241C145.867 401.241 190.533 364.003 228.708 413.435C227.102 405.137 222.536 355.216 242.646 334.457C247.399 323.451 255.102 292.436 247.899 256.417C242.646 251.915 330.441 254.166 293.672 359.219C292.722 363.452 291.763 367.517 290.843 371.417C283.77 401.395 278.995 421.634 298.174 433.507C313.932 443.262 332.692 434.257 344.698 401.241C343.53 394.235 375.971 449.452 351.567 505.859C323.353 516.298 292.843 522 261 522C238.042 522 215.777 519.036 194.566 513.47Z" fill="#BC7147"/>
<path fill-rule="evenodd" clip-rule="evenodd" d="M221.921 2.90596C218.566 3.40977 215.231 3.97747 211.918 4.60778C211.734 24.3312 205.558 42.252 197.526 58.3562C192.163 69.1094 186.026 78.9501 180.337 87.9708C180.039 88.4426 179.742 88.9129 179.447 89.3816L179.4 89.4554L179.4 89.4557C174.233 97.6423 169.382 105.328 166.204 112.144C154.287 130.085 148.424 152.232 146.129 174.933C143.816 197.809 145.094 221.585 147.7 242.863C150.309 264.159 154.266 283.085 157.375 296.291C157.624 297.345 157.867 298.364 158.103 299.344C129.835 275.674 102.115 268.79 78.0132 270.091C50.9991 271.548 29.1157 283.248 16.6275 291.758C16.4447 291.852 16.2592 291.962 16.0738 292.09C15.2981 292.623 14.5823 293.439 14.1863 294.529C13.8092 295.568 13.847 296.51 13.9627 297.155C14.167 298.294 14.7107 299.064 14.8711 299.288C15.106 299.616 15.3397 299.867 15.4883 300.019C16.0133 300.556 16.72 301.098 17.2685 301.508C18.3409 302.309 19.9298 303.417 21.8026 304.723L21.8181 304.734C22.0913 304.924 22.3706 305.119 22.6552 305.318C27.2272 308.509 33.6182 313.007 40.3858 318.391C47.165 323.784 54.2295 329.995 60.1568 336.573C66.1279 343.2 70.6836 349.916 72.8076 356.297L72.9049 356.589L73.0373 356.867C78.9231 369.227 80.9243 381.017 81.5331 394.487C81.8396 401.267 81.7919 408.413 81.7192 416.306L81.7083 417.483V417.484C81.6381 425.017 81.562 433.186 81.7773 442.132C81.8521 445.243 82.0946 448.347 82.5074 451.426C86.6313 455.293 90.8808 459.027 95.2491 462.622C93.1006 455.996 91.9453 448.995 91.7744 441.891C91.5633 433.117 91.6379 425.098 91.7082 417.542L91.7188 416.398C91.7911 408.543 91.8436 401.13 91.5229 394.035C90.8817 379.848 88.743 366.703 82.1954 352.841C79.4146 344.696 73.8982 336.885 67.5859 329.879C61.153 322.74 53.6265 316.146 46.6116 310.565C39.585 304.975 32.9788 300.328 28.3783 297.117L27.6066 296.579C39.6047 289.285 57.4501 281.215 78.5519 280.076C103.022 278.756 132.472 286.716 162.917 317.355C163.033 317.509 163.177 317.685 163.35 317.863C163.538 318.055 164.109 318.625 165.044 319.01C166.199 319.485 168.13 319.712 169.893 318.436C171.253 317.451 171.665 316.134 171.775 315.746C171.925 315.223 171.956 314.791 171.965 314.593C171.997 313.96 171.897 313.398 171.877 313.286L171.874 313.273C171.836 313.049 171.787 312.818 171.742 312.612C171.565 311.815 171.23 310.512 170.814 308.896L170.677 308.368C169.822 305.051 168.558 300.154 167.109 293.999C164.051 281.011 160.176 262.465 157.626 241.647C155.074 220.809 153.866 197.827 156.078 175.939C158.295 154.015 163.911 133.523 174.732 117.38L174.955 117.048L175.122 116.684C178.008 110.403 182.606 103.114 188.046 94.4924L188.795 93.3053C194.479 84.2934 200.864 74.0709 206.475 62.8192C215.142 45.4415 222.089 25.3667 221.921 2.90596ZM482.581 398.99C481.867 381.631 477.472 366.138 472.771 354.586C470.672 349.43 468.535 345.115 466.679 341.822C461.16 356.661 452.701 368.063 443.437 375.744C432.547 384.774 419.887 389.124 409.513 386.588C400.625 384.415 393.66 381.304 388.475 377.086C383.204 372.797 379.989 367.536 378.402 361.529C375.351 349.983 378.446 335.933 382.625 321.095C404.896 242.035 397.704 187.63 385.397 155.596C379.213 139.499 371.801 129.202 366.324 124.161C365.315 123.231 364.411 122.518 363.635 121.992C360.081 153.051 352.323 174.231 342.366 187.581C332.04 201.428 319.238 206.912 306.899 205.677C282.96 203.281 264.054 175.996 272.355 149.138C290.953 88.9688 273.993 46.1727 253.566 19.627C247.859 12.211 241.874 6.05702 236.303 1.15323C240.798 0.73132 245.326 0.423411 249.884 0.232422C253.761 4.15395 257.687 8.58468 261.491 13.5285C283.648 42.3232 301.581 88.4472 281.909 152.091C275.367 173.257 290.603 193.996 307.895 195.727C316.17 196.555 325.755 193.128 334.35 181.603C343.043 169.946 350.588 150.095 353.928 118.796C353.975 116.972 354.469 114.758 356.178 113.025C358.095 111.079 360.577 110.7 362.563 110.927C366.134 111.335 369.826 113.792 373.097 116.803C380.001 123.158 388.16 134.903 394.732 152.01C407.938 186.385 415.003 243.036 392.251 323.807C387.975 338.985 385.817 350.448 388.07 358.974C389.134 363.003 391.209 366.418 394.786 369.329C398.45 372.31 403.892 374.92 411.887 376.874C418.022 378.374 427.498 375.97 437.055 368.046C446.367 360.324 455.149 347.784 459.801 330.524C459.918 329.802 460.222 328.819 461.007 327.904C462.669 325.965 464.937 325.944 466.189 326.245C467.245 326.499 468.001 327.02 468.334 327.265C468.748 327.569 469.105 327.899 469.391 328.186C470.476 329.275 471.713 330.945 472.971 332.89C475.568 336.902 478.876 343.06 482.033 350.816C485.721 359.878 489.263 371.271 491.189 384.129C488.479 389.184 485.607 394.14 482.581 398.99ZM363.931 118.945C363.931 118.943 363.931 118.941 363.931 118.941C363.931 118.941 363.93 118.945 363.929 118.952C363.929 118.956 363.929 118.961 363.928 118.968C363.93 118.957 363.931 118.949 363.931 118.945Z" fill="#77282A"/>
<circle cx="261" cy="261" r="251" stroke="#77282A" stroke-width="20"/>
</svg>
