<svg width="419" height="386" viewBox="0 0 419 386" fill="none" xmlns="http://www.w3.org/2000/svg">
<path d="M1.56191 237.99L0 167.705H418.431L415.368 242.732C415.197 246.938 414.504 251.191 413.155 255.179C350.72 439.736 42.9238 421.787 2.60843 246.812C1.94587 243.937 1.62747 240.941 1.56191 237.99Z" fill="#FF9600"/>
<path d="M1.56191 237.99L0 167.705H418.431L415.368 242.732C415.197 246.938 414.504 251.191 413.155 255.179C350.72 439.736 42.9238 421.787 2.60843 246.812C1.94587 243.937 1.62747 240.941 1.56191 237.99Z" fill="#71C087"/>
<ellipse cx="209.215" cy="171.025" rx="209.215" ry="171.025" fill="#95D0A5"/>
<path d="M139.15 243.9C131.276 235.646 122.321 225.636 115.549 217.869L283.272 48.7743C287.313 44.6995 293.948 44.8553 297.794 49.1152L320.764 74.5578C324.325 78.502 324.18 84.5424 320.433 88.3104L152.672 257.013C152.169 256.607 151.588 256.114 150.928 255.531C147.845 252.805 143.723 248.695 139.15 243.9Z" fill="white" stroke="#BC9E8F" stroke-width="10"/>
<path d="M120.384 267.836L102.795 249.269C103.452 247.374 104.104 245.488 104.747 243.626C106.768 237.777 108.707 232.165 110.476 227.257C116.572 234.193 123.947 242.394 130.704 249.529C134.935 253.997 138.978 258.104 142.337 261.234L120.384 267.836Z" fill="white" stroke="#BC9E8F" stroke-width="10"/>
<path d="M93.4342 275.014C95.2478 270.45 97.1554 265.266 99.0737 259.882L109.664 271.06L93.9084 275.799C93.8968 275.802 93.8954 275.804 93.8955 275.804C93.8956 275.804 93.897 275.803 93.8925 275.801C93.8546 275.789 93.7466 275.737 93.6274 275.601C93.5085 275.465 93.4437 275.319 93.4212 275.211C93.4032 275.126 93.4105 275.073 93.4342 275.014Z" stroke="#BC9E8F" stroke-width="10"/>
</svg>
