<svg width="522" height="522" viewBox="0 0 522 522" fill="none" xmlns="http://www.w3.org/2000/svg">
<circle cx="261" cy="261" r="251" fill="#E0AFA0" stroke="#A65354" stroke-width="20"/>
<path d="M184.479 338.821C175.839 329.763 166 318.758 158.626 310.296L341.651 125.774C345.692 121.7 352.327 121.855 356.173 126.115L382.765 155.569C386.326 159.514 386.18 165.554 382.433 169.322L199.473 353.31C198.855 352.82 198.121 352.205 197.273 351.455C193.917 348.487 189.439 344.021 184.479 338.821Z" fill="#F2E8CF" stroke="#A65354" stroke-width="10"/>
<path d="M153.546 319.679C160.239 327.306 168.437 336.431 175.931 344.344C180.744 349.427 185.327 354.073 189.06 357.512L164.313 364.955L144.893 344.455C145.633 342.322 146.366 340.2 147.09 338.104C149.373 331.495 151.562 325.162 153.546 319.679Z" fill="#F2E8CF" stroke="#A65354" stroke-width="10"/>
<path d="M134.46 373.045C136.608 367.7 138.885 361.508 141.174 355.07L153.593 368.179L134.908 373.799C134.901 373.801 134.898 373.802 134.896 373.803C134.896 373.803 134.895 373.802 134.895 373.802C134.861 373.791 134.758 373.742 134.643 373.611C134.529 373.48 134.467 373.339 134.446 373.237C134.429 373.157 134.436 373.106 134.46 373.045Z" stroke="#A65354" stroke-width="10"/>
</svg>
