<svg width="522" height="522" viewBox="0 0 522 522" fill="none" xmlns="http://www.w3.org/2000/svg">
<circle cx="261" cy="261" r="251" fill="#F2E8CF" stroke="#E0AFA0" stroke-width="20"/>
<mask id="path-2-inside-1_29_40" fill="white">
<path fill-rule="evenodd" clip-rule="evenodd" d="M286.965 293.235C285.023 295.83 283.973 298.983 283.973 302.224V364.738C283.973 368.239 282.748 371.63 280.511 374.323L257.277 402.291C248.304 413.091 230.739 406.746 230.739 392.706V291.517C230.739 288.276 229.689 285.123 227.747 282.528L136.019 159.989C128.615 150.099 135.673 136 148.027 136H374.7C387.054 136 394.111 150.099 386.708 159.989L286.965 293.235Z"/>
</mask>
<path d="M386.708 159.989L378.702 153.996L386.708 159.989ZM227.747 282.528L235.753 276.536L227.747 282.528ZM280.511 374.323L272.819 367.933L280.511 374.323ZM286.965 293.235L278.959 287.243L286.965 293.235ZM273.973 302.224V364.738H293.973V302.224H273.973ZM272.819 367.933L249.585 395.901L264.969 408.681L288.203 380.713L272.819 367.933ZM240.739 392.706V291.517H220.739V392.706H240.739ZM235.753 276.536L144.024 153.996L128.013 165.982L219.741 288.521L235.753 276.536ZM148.027 146H374.7V126H148.027V146ZM378.702 153.996L278.959 287.243L294.97 299.228L394.713 165.982L378.702 153.996ZM374.7 146C378.818 146 381.17 150.7 378.702 153.996L394.713 165.982C407.053 149.498 395.29 126 374.7 126V146ZM144.024 153.996C141.557 150.7 143.909 146 148.027 146V126C127.437 126 115.674 149.498 128.013 165.982L144.024 153.996ZM240.739 291.517C240.739 286.116 238.989 280.86 235.753 276.536L219.741 288.521C220.389 289.386 220.739 290.437 220.739 291.517H240.739ZM249.585 395.901C246.594 399.501 240.739 397.386 240.739 392.706H220.739C220.739 416.107 250.015 426.681 264.969 408.681L249.585 395.901ZM273.973 364.738C273.973 365.905 273.565 367.035 272.819 367.933L288.203 380.713C291.932 376.225 293.973 370.573 293.973 364.738H273.973ZM293.973 302.224C293.973 301.144 294.323 300.093 294.97 299.228L278.959 287.243C275.723 291.567 273.973 296.823 273.973 302.224H293.973Z" fill="#20292F" mask="url(#path-2-inside-1_29_40)"/>
</svg>
