<svg width="419" height="386" viewBox="0 0 419 386" fill="none" xmlns="http://www.w3.org/2000/svg">
<path d="M1.56191 237.99L0 167.705H418.431L415.368 242.732C415.197 246.938 414.504 251.191 413.155 255.179C350.72 439.736 42.9238 421.787 2.60843 246.812C1.94587 243.937 1.62747 240.941 1.56191 237.99Z" fill="#FF9600"/>
<path d="M1.56191 237.99L0 167.705H418.431L415.368 242.732C415.197 246.938 414.504 251.191 413.155 255.179C350.72 439.736 42.9238 421.787 2.60843 246.812C1.94587 243.937 1.62747 240.941 1.56191 237.99Z" fill="#71C087"/>
<ellipse cx="209.215" cy="171.025" rx="209.215" ry="171.025" fill="#95D0A5"/>
<rect x="92.9277" y="94.2856" width="232.143" height="152.286" rx="20" fill="white"/>
<rect x="97.9277" y="99.2856" width="222.143" height="142.286" rx="15" stroke="#BC9E8F" stroke-width="10"/>
<path d="M316.25 237.75L247.688 163.094" stroke="#BC9E8F" stroke-width="10"/>
<path d="M101.285 237.75L169.606 162.745" stroke="#BC9E8F" stroke-width="10"/>
<path d="M205.751 190.788C207.622 192.387 210.378 192.387 212.249 190.788L309.001 108.087C312.532 105.068 310.398 99.2859 305.752 99.2859H112.248C107.602 99.2859 105.468 105.068 108.999 108.087L205.751 190.788Z" fill="white" stroke="#BC9E8F" stroke-width="10"/>
</svg>
