<svg width="522" height="522" viewBox="0 0 522 522" fill="none" xmlns="http://www.w3.org/2000/svg">
<circle cx="261" cy="261" r="261" fill="#B8F2E6"/>
<path fill-rule="evenodd" clip-rule="evenodd" d="M11.4587 324.673C6.16701 287.868 10.4484 252.24 14.6371 231C13.2821 231.7 45.9376 193.188 53.6408 185.5C135.002 66.8196 304.141 71.5 267.717 130.982C357.889 160.829 280.106 206.134 260.137 179C240.198 181.713 162.856 198.139 218.137 280C268.887 348.288 404.23 399.025 463.137 404C460.331 406.83 455.883 411.7 450.425 417.677C430.986 438.962 398.728 474.285 382.137 481.5C373.031 481.5 360.906 485.966 346.033 491.444C305.043 506.54 243.181 529.324 166.137 487.5C138.446 487.5 104.585 457.684 81.131 437.03C70.3659 427.551 61.7931 420.002 57.0153 418.153C56.135 417.351 55.2699 416.54 54.4196 415.721C34.6053 388.845 19.8218 358.032 11.4587 324.673Z" fill="#AED9E0"/>
<path d="M467.637 404.138C408.73 399.164 270.074 348.514 219.324 280.227C164.043 198.365 233.372 178.467 253.31 175.754M387.887 448C319.012 436.242 221.59 418.605 157.7 348.96M163.137 435.79C145.918 428.705 111.843 409.469 91.5433 374.738M67.0745 418.152C30.1385 382.331 30.0087 344.783 48.1861 319.113M140.476 323.183C169.022 351.221 186.695 315.043 157.699 299.666C115.897 275.269 69.4801 289.041 48.1861 319.113M63.4448 359.814C85.6479 336.297 96.5229 344.438 122.804 364.336C148.179 379.712 168.117 351.221 151.533 331.323M48.1861 319.113C30.9182 297.857 11.3363 244.494 70.6948 234.092C93.8051 232.283 125.071 252.182 135.493 224.143C140.556 207.252 113.406 191.652 76.1359 203.121M178.089 270.271C166.61 249.016 155.161 197.37 201.198 160.83M76.1359 203.121C71.1623 204.651 66.0085 206.663 60.7269 209.219C55.1384 211.48 38.7051 218.716 17.6801 229.57C16.3251 230.269 47.1359 188.868 54.839 181.18C130.012 98.3825 248.777 40.082 277.777 130.982M76.1359 203.121C86.7661 188.573 118.234 151.491 170.839 133.243M230.652 121.485C210.486 121.485 187.743 127.38 170.839 133.243M170.839 133.243C192.589 133.243 226.573 131.887 264.183 182.989C284.152 210.124 349.37 157.212 259.198 127.364" stroke="#F2E8CF" stroke-width="10" stroke-linecap="round"/>
<circle cx="261" cy="261" r="251" stroke="#284B63" stroke-width="20"/>
</svg>
