<svg width="522" height="522" viewBox="0 0 522 522" fill="none" xmlns="http://www.w3.org/2000/svg">
<circle cx="261" cy="261" r="251" fill="#F2E8CF" stroke="#3C6E71" stroke-width="20"/>
<mask id="path-2-inside-1_29_27" fill="white">
<path fill-rule="evenodd" clip-rule="evenodd" d="M106 170.108C106 191.612 117.886 210.34 135.446 220.081C137.868 221.425 139.007 224.371 137.969 226.939C131.812 242.174 128.423 258.824 128.423 276.266C128.423 349.021 187.402 408 260.157 408C332.911 408 391.891 349.021 391.891 276.266C391.891 259.053 388.589 242.612 382.586 227.54C381.547 224.933 382.744 221.956 385.225 220.646C403.357 211.077 415.715 192.036 415.715 170.108C415.715 138.568 390.147 113 358.607 113C335.151 113 314.998 127.141 306.208 147.363C305.089 149.936 302.211 151.356 299.534 150.518C287.1 146.628 273.873 144.532 260.157 144.532C246.874 144.532 234.05 146.498 221.961 150.155C219.31 150.956 216.479 149.557 215.358 147.024C206.491 126.983 186.433 113 163.108 113C131.568 113 106 138.568 106 170.108Z"/>
</mask>
<path d="M306.208 147.363L297.037 143.377L306.208 147.363ZM215.358 147.024L206.213 151.07L215.358 147.024ZM382.586 227.54L373.296 231.24L382.586 227.54ZM385.225 220.646L389.893 229.49L385.225 220.646ZM135.446 220.081L130.595 228.826L135.446 220.081ZM137.969 226.939L128.697 223.192L137.969 226.939ZM140.297 211.337C125.786 203.287 116 187.833 116 170.108H96C96 195.391 109.986 217.394 130.595 228.826L140.297 211.337ZM138.423 276.266C138.423 260.13 141.557 244.75 147.241 230.685L128.697 223.192C122.068 239.598 118.423 257.519 118.423 276.266H138.423ZM260.157 398C192.925 398 138.423 343.498 138.423 276.266H118.423C118.423 354.544 181.879 418 260.157 418V398ZM381.891 276.266C381.891 343.498 327.389 398 260.157 398V418C338.434 418 401.891 354.544 401.891 276.266H381.891ZM373.296 231.24C378.838 245.154 381.891 260.342 381.891 276.266H401.891C401.891 257.765 398.341 240.069 391.876 223.839L373.296 231.24ZM389.893 229.49C411.174 218.258 425.715 195.889 425.715 170.108H405.715C405.715 188.182 395.539 203.895 380.558 211.802L389.893 229.49ZM425.715 170.108C425.715 133.045 395.67 103 358.607 103V123C384.624 123 405.715 144.091 405.715 170.108H425.715ZM358.607 103C331.028 103 307.357 119.635 297.037 143.377L315.379 151.35C322.639 134.648 339.274 123 358.607 123V103ZM260.157 154.532C272.849 154.532 285.069 156.471 296.548 160.062L302.519 140.974C289.13 136.786 274.897 134.532 260.157 134.532V154.532ZM224.856 159.726C236.017 156.351 247.865 154.532 260.157 154.532V134.532C245.882 134.532 232.084 136.645 219.066 140.583L224.856 159.726ZM163.108 123C182.333 123 198.89 134.517 206.213 151.07L224.503 142.978C214.093 119.449 190.532 103 163.108 103V123ZM116 170.108C116 144.091 137.091 123 163.108 123V103C126.045 103 96 133.045 96 170.108H116ZM297.037 143.377C297.827 141.558 300.019 140.192 302.519 140.974L296.548 160.062C304.403 162.519 312.352 158.314 315.379 151.35L297.037 143.377ZM219.066 140.583C221.542 139.834 223.708 141.18 224.503 142.978L206.213 151.07C209.25 157.933 217.078 162.079 224.856 159.726L219.066 140.583ZM391.876 223.839C392.845 226.272 391.649 228.563 389.893 229.49L380.558 211.802C373.839 215.348 370.25 223.595 373.296 231.24L391.876 223.839ZM130.595 228.826C128.873 227.871 127.728 225.59 128.697 223.192L147.241 230.685C150.285 223.151 146.863 214.979 140.297 211.337L130.595 228.826Z" fill="#20292F" mask="url(#path-2-inside-1_29_27)"/>
<circle cx="213.909" cy="260.85" r="25.9264" fill="#20292F"/>
<circle cx="304.301" cy="260.85" r="25.9264" fill="#20292F"/>
<path d="M269.368 325.542C265.461 331.872 256.255 331.872 252.348 325.542L251.459 324.101C247.347 317.439 252.14 308.849 259.969 308.849H261.747C269.576 308.849 274.369 317.439 270.257 324.101L269.368 325.542Z" fill="#20292F"/>
<path d="M260.857 330.921L245.441 341.782" stroke="#20292F" stroke-width="10" stroke-linecap="round"/>
<path d="M260.858 330.921L276.273 341.782" stroke="#20292F" stroke-width="10" stroke-linecap="round"/>
</svg>
